<?xml version="1.0" encoding="UTF-8" standalone="no"?>
<!-- Created with Inkscape (http://www.inkscape.org/) -->

<svg
   version="1.1"
   id="svg1"
   width="1299.9561"
   height="475.26526"
   viewBox="0 0 1299.9561 475.26526"
   xmlns="http://www.w3.org/2000/svg"
   xmlns:svg="http://www.w3.org/2000/svg">
  <defs
     id="defs1" />
  <g
     id="g1"
     transform="translate(-1.8899528,-0.06563437)">
    <path
       style="fill:#95c219;fill-opacity:1"
       d="m 404.96181,474.77536 c -25.40221,-2.83287 -42.35987,-22.42657 -42.19707,-48.75652 0.17817,-28.81651 19.79556,-48.25635 48.69707,-48.25635 28.96273,0 46.75869,17.19321 49.00997,47.35 l 0.72787,9.75 h -32.25059 -32.25059 l 0.55792,4.15958 c 0.98165,7.31872 6.00807,11.21584 15.05519,11.6727 8.21233,0.4147 12.45117,-1.07266 15.25582,-5.35309 1.61258,-2.4611 1.73668,-2.47919 17.00942,-2.47919 17.59509,0 16.95368,-0.45867 12.32147,8.81121 -8.01651,16.04245 -29.50963,25.60272 -51.93648,23.10166 z m 23,-60.96253 c 0,-0.57731 -0.69685,-2.39721 -1.54855,-4.04422 -4.73973,-9.16564 -22.04064,-9.54799 -27.49193,-0.60757 -3.46209,5.67801 -3.40641,5.70145 13.54048,5.70145 10.15554,0 15.5,-0.36193 15.5,-1.04966 z m 77.33479,60.99257 c -19.74745,-1.99374 -34.37312,-12.08707 -38.67919,-26.69291 l -1.5478,-5.25 h 17.47085 c 17.19629,0 17.48437,0.0354 18.33134,2.25 1.71945,4.49603 4.81036,6.16882 12.1665,6.58448 8.44539,0.47721 11.92351,-1.22396 11.92351,-5.83185 0,-4.13669 -3.16706,-5.50315 -18.62748,-8.03696 -28.85008,-4.72825 -38.49752,-12.18463 -38.49752,-29.75422 0,-19.43687 16.22774,-30.46786 44.625,-30.33435 26.10442,0.12274 44.45968,12.23992 44.49442,29.3729 l 0.006,2.75 h -15.5 c -14.34003,0 -15.5,-0.13663 -15.5,-1.82569 0,-3.76448 -4.59775,-6.55391 -11.53024,-6.99534 -7.95539,-0.50656 -11.46976,1.27702 -11.46976,5.82103 0,4.40156 2.6898,5.55053 20,8.54316 29.29051,5.06382 37.42945,11.14083 37.19366,27.77094 -0.2996,21.12972 -23.92653,34.7518 -54.85887,31.62881 z m 164.97047,0.0231 c -14.83276,-2.09613 -23.26107,-12.12098 -25.33167,-30.13016 -0.52713,-4.58472 -0.96183,-21.27336 -0.966,-37.08586 l -0.008,-28.74999 h 18 18 v 29.04966 c 0,31.36831 0.22913,32.90478 5.4137,36.30184 3.18428,2.08642 12.35863,2.19669 15.23343,0.18311 4.94777,-3.46556 5.35287,-6.26079 5.35287,-36.93574 v -28.59887 h 18 18 v 47.5 47.5 h -17.5 -17.5 v -8 c 0,-4.66667 -0.41667,-8 -1,-8 -0.55,0 -1,0.40133 -1,0.89185 0,1.81146 -9.39658,11.26982 -13.04567,13.13145 -2.07394,1.05804 -5.72459,2.18898 -8.11256,2.51318 -2.38798,0.32421 -5.24177,0.71866 -6.34177,0.87656 -1.1,0.1579 -4.33763,-0.0433 -7.19474,-0.44702 z m 109.17365,0.0212 c -9.85784,-1.39974 -17.58497,-7.42381 -21.65758,-16.88424 -2.8976,-6.73097 -3.78364,-18.22772 -3.80356,-49.35293 l -0.0178,-27.75004 h 17.5 17.5 v 27.53212 c 0,29.82144 0.40464,32.53731 5.32838,35.76348 4.50214,2.94991 12.90293,2.31925 16.45768,-1.2355 4.02261,-4.02261 4.21394,-5.64289 4.21394,-35.6851 v -26.375 h 17.5 17.5 v 46.5 46.5 h -17 -17 v -8 c 0,-4.66667 -0.41667,-8 -1,-8 -0.55,0 -1,0.40133 -1,0.89185 0,1.81146 -9.39658,11.26982 -13.04567,13.13145 -2.07394,1.05804 -5.72459,2.18898 -8.11256,2.51318 -2.38798,0.32421 -5.24177,0.71866 -6.34177,0.87656 -1.1,0.1579 -4.25949,-0.0337 -7.02109,-0.42587 z m 183.38417,-0.0758 c -20.163,-2.22997 -32.9284,-20.58725 -32.9694,-47.41137 -0.026,-16.76502 3.5506,-26.8903 13.009,-36.83244 13.2851,-13.96462 35.7137,-14.86273 47.135,-1.88742 l 3.9623,4.5014 v -25.14079 -25.14079 h 17.50001 17.5 v 65.5 65.5 h -16.9579 -16.95801 l -0.292,-7.75 -0.2921,-7.75 -1.867,3.5 c -5.4317,10.18286 -15.3898,14.50175 -29.7699,12.91137 z m 22.419,-27.28249 c 14.3839,-6.12888 14.4165,-34.26077 0.047,-40.26485 -11.293,-4.71853 -20.2625,2.77682 -21.1236,17.65196 -1.0302,17.79563 8.4677,27.98562 21.0769,22.61289 z m 95.21791,27.35248 c -24.9561,-2.68505 -41.7,-21.75041 -41.7,-47.4814 0,-27.99103 19.396,-47.55096 47.1964,-47.59516 28.9063,-0.046 46.3557,16.61828 48.5287,46.34516 l 0.7127,9.75 h -31.7505 -31.7506 l 0.5579,4.15958 c 0.9816,7.31872 6.008,11.21584 15.0552,11.6727 8.2123,0.4147 12.4511,-1.07266 15.2558,-5.35309 1.6095,-2.45646 1.7619,-2.47919 16.6178,-2.47919 h 14.9934 l -0.6768,2.75 c -4.3844,17.81421 -28.8462,30.83444 -53.04,28.2314 z m 22.5,-60.03106 c 0,-0.57731 -0.6968,-2.39721 -1.5485,-4.04422 -4.7398,-9.16564 -22.0407,-9.54799 -27.492,-0.60757 -3.4621,5.67801 -3.4064,5.70145 13.5405,5.70145 10.1555,0 15.5,-0.36193 15.5,-1.04966 z m 145.9069,59.95636 c -20.0885,-1.6978 -34.4909,-11.80055 -38.7143,-27.1567 l -1.0314,-3.75 17.1694,0.0216 17.1694,0.0216 1.5,3.2238 c 1.9359,4.16072 5.1734,5.6999 12.0275,5.71818 6.7908,0.0181 9.9725,-1.90135 9.9725,-6.01628 0,-4.10878 -3.3304,-5.54214 -18.6704,-8.03543 -24.8535,-4.03956 -34.0507,-10.08066 -36.2177,-23.78936 -3.4377,-21.74682 12.9625,-35.21162 42.8881,-35.21162 25.844,0 44,11.7327 44,28.43345 v 2.63406 h -15.5 c -14.593,0 -15.5,-0.11183 -15.5,-1.91111 0,-1.0511 -1.3845,-3.0761 -3.0767,-4.5 -5.7593,-4.84611 -18.9476,-2.95044 -18.908,2.71781 0.035,4.99389 2.084,5.91038 20.5077,9.17249 27.371,4.84633 37.0231,12.75041 35.1321,28.76982 -2.4145,20.45342 -23.223,32.15303 -52.7482,29.65769 z M 135.96181,472.8107 c -30.5416,-7.90686 -53.013984,-33.63144 -56.974884,-65.22027 -0.55481,-4.4247 -1.15558,-8.19173 -1.33503,-8.37118 -0.17946,-0.17946 -3.87708,-0.82016 -8.21694,-1.42378 -26.50264,-3.68618 -47.9198,-18.66135 -59.256513,-41.43298 -20.180223,-40.53527 -1.8775392,-89.32841 39.826473,-106.1734 13.27835,-5.36337 13.67884,-5.38417 98.061234,-5.09454 l 78.06025,0.26794 2.91771,3.26578 2.9177,3.26577 -0.0174,77.73423 c -0.0187,83.66246 -0.0459,84.16042 -5.31239,97.19891 -7.68414,19.02401 -23.14352,34.65615 -42.35636,42.82966 -12.77868,5.43631 -34.1171,6.82925 -48.31389,3.15386 z m 32.6816,-47.49647 c 19.73023,-9.64087 22.09475,-33.80319 5.02157,-51.31387 -11.68891,-11.98844 -17.34081,-14.46353 -24.50283,-10.73031 -4.65443,2.42613 -19.06458,18.03129 -21.28433,23.04941 -11.32547,25.60309 15.55337,51.31433 40.76559,38.99477 z M 88.096976,350.14528 c 4.37993,-1.40195 7.1561,-3.45039 15.122044,-11.15804 15.43647,-14.93594 15.68355,-19.45426 1.82188,-33.31593 -10.916344,-10.91634 -16.460564,-13.78499 -26.669374,-13.79905 -27.43876,-0.0378 -40.15391,33.31418 -19.7946,51.92145 8.57437,7.83649 18.32594,9.93465 29.52005,6.35157 z m 160.864834,56.70594 v -67.2291 l 34.75,0.50162 c 37.23286,0.53747 40.86476,0.97615 51.12425,6.17503 13.25046,6.71451 19.06581,17.84079 16.91379,32.36049 -1.73327,11.69442 -8.29308,18.69114 -22.28804,23.7725 -1.58212,0.57444 -1.08729,0.89757 2.36826,1.54649 30.05516,5.64412 34.75912,47.3266 7.13174,63.19548 -9.47317,5.4413 -13.43389,5.91978 -53.25,6.43295 l -36.75,0.47365 z m 64.39281,37.49511 c 6.22586,-2.95436 8.75317,-13.0424 4.90113,-19.56339 -2.86429,-4.84885 -6.6101,-5.92045 -20.69507,-5.92045 h -12.59887 v 13.5 13.5 h 12.59887 c 9.18711,0 13.46409,-0.41057 15.79394,-1.51616 z m -0.79281,-54.88384 c 4.74382,-4.74382 4.96314,-12.81752 0.48447,-17.83422 l -2.91553,-3.26578 -12.58447,-0.33156 -12.58447,-0.33155 v 12.58155 12.58156 h 12.1 12.1 z m 294.9,83.29451 c -15.92289,-1.67082 -23.75219,-8.58001 -25.55244,-22.54946 -0.48517,-3.76478 -0.89685,-15.28255 -0.91484,-25.59505 l -0.0327,-18.75 h -8 -8 v -13.5 -13.5 h 8 8 v -12.5 -12.5 h 18 18 v 12.5 12.5 h 9.5 9.5 v 13.5 13.5 h -9.5 -9.5 v 19.3 c 0,13.67778 0.34957,19.64957 1.2,20.5 0.74056,0.74056 4.37778,1.2 9.5,1.2 h 8.3 v 13.5 13.5 l -10.25,-0.13302 c -5.6375,-0.0732 -13.85,-0.51077 -18.25,-0.97247 z m 254.5,-45.39451 v -46.5 h 17 17 l 0.0576,8.75 0.0576,8.75 2.32322,-5.10821 c 3.94277,-8.6692 11.34095,-12.28525 25.31156,-12.37168 l 3.25,-0.0201 v 13.90629 13.9063 l -9.74998,0.3437 c -11.18521,0.3943 -14.6339,2.04836 -17.87671,8.57402 -1.66118,3.34286 -1.90688,6.7419 -2.16991,30.01969 l -0.29662,26.25 h -17.45338 -17.45338 z m 280.99999,0 v -46.5 h 17 17 l 0.058,8.75 0.058,8.75 2.3232,-5.10821 c 3.9428,-8.6692 11.341,-12.28525 25.3116,-12.37168 l 3.2492,-0.0201 v 13.90629 13.9063 l -9.75,0.3437 c -11.1852,0.3943 -14.6339,2.04836 -17.8767,8.57402 -1.6612,3.34286 -1.9069,6.7419 -2.1699,30.01969 l -0.2966,26.25 h -17.4534 -17.4534 z m -476.99999,-149.5 v -66 h 17.5 17.5 v 6 c 0,7.1055 0.2674,7.21588 4.76152,1.96551 11.47365,-13.40439 37.30597,-11.92027 50.3446,2.89239 8.25153,9.37423 12.08292,21.21442 12.01889,37.1421 -0.11968,29.77079 -15.47865,48.2338 -40.05955,48.15558 -10.96397,-0.0349 -16.91709,-2.99994 -23.20099,-11.55562 l -2.86447,-3.90004 v 25.65004 25.65004 h -18 -18 z m 60.98327,-0.48397 c 9.13059,-8.74766 7.89871,-32.17302 -1.99593,-37.95452 -4.56674,-2.66837 -11.79698,-2.46031 -16.54837,0.47621 -9.44767,5.83898 -11.57192,26.38944 -3.65083,35.31886 5.82763,6.56947 16.50749,7.60856 22.19513,2.15945 z m -321.98327,29.39684 c -25.40221,-2.83287 -42.35987,-22.42657 -42.19707,-48.75652 0.17817,-28.81651 19.79556,-48.25635 48.69707,-48.25635 28.96273,0 46.75869,17.19321 49.00997,47.35 l 0.72787,9.75 h -32.25059 -32.25059 l 0.55792,4.15958 c 0.98165,7.31872 6.00807,11.21584 15.05519,11.6727 8.21233,0.4147 12.45117,-1.07266 15.25582,-5.35309 1.61258,-2.4611 1.73668,-2.47919 17.00942,-2.47919 17.59509,0 16.95368,-0.45867 12.32147,8.81121 -8.01651,16.04245 -29.50963,25.60272 -51.93648,23.10166 z m 23,-60.96253 c 0,-0.57731 -0.69685,-2.39721 -1.54855,-4.04422 -4.73973,-9.16564 -22.04064,-9.54799 -27.49193,-0.60757 -3.46209,5.67801 -3.40641,5.70145 13.54048,5.70145 10.15554,0 15.5,-0.36193 15.5,-1.04966 z m 169.77177,60.95328 c -26.70245,-2.9136 -42.90672,-21.19385 -42.90672,-48.40362 0,-30.08234 19.29052,-48.59612 50.63495,-48.59612 31.41974,0 50.58333,18.41073 50.58333,48.59612 0,32.51581 -23.69079,52.18121 -58.31156,48.40362 z m 16.2938,-29.61225 c 4.94466,-4.16066 6.89051,-9.46725 6.89051,-18.79137 0,-13.95528 -5.42381,-21.5 -15.45608,-21.5 -10.03227,0 -15.45608,7.54472 -15.45608,21.5 0,13.95528 5.42381,21.5 15.45608,21.5 4.35385,0 5.94423,-0.50292 8.56557,-2.70863 z m 201.93443,29.6215 c -25.40221,-2.83287 -42.35987,-22.42657 -42.19707,-48.75652 0.17817,-28.81651 19.79556,-48.25635 48.69707,-48.25635 28.96273,0 46.75869,17.19321 49.00997,47.35 l 0.72787,9.75 h -32.25059 -32.25059 l 0.55792,4.15958 c 0.98165,7.31872 6.00807,11.21584 15.05519,11.6727 8.21233,0.4147 12.45117,-1.07266 15.25582,-5.35309 1.61258,-2.4611 1.73668,-2.47919 17.00942,-2.47919 17.59509,0 16.95368,-0.45867 12.32147,8.81121 -8.01651,16.04245 -29.50963,25.60272 -51.93648,23.10166 z m 23,-60.96253 c 0,-0.57731 -0.69685,-2.39721 -1.54855,-4.04422 -4.73973,-9.16564 -22.04064,-9.54799 -27.49193,-0.60757 -3.46209,5.67801 -3.40641,5.70145 13.54048,5.70145 10.15554,0 15.5,-0.36193 15.5,-1.04966 z m -590,-6.96161 v -67.2291 l 34.75,0.50162 c 37.23286,0.53747 40.86476,0.97615 51.12425,6.17503 13.25046,6.71451 19.06581,17.84079 16.91379,32.36049 -1.73327,11.69442 -8.29308,18.69114 -22.28804,23.7725 -1.58212,0.57444 -1.08729,0.89757 2.36826,1.54649 30.05516,5.64412 34.75912,47.3266 7.13174,63.19548 -9.47317,5.4413 -13.43389,5.91978 -53.25,6.43295 l -36.75,0.47365 z m 64.39281,37.49511 c 6.22586,-2.95436 8.75317,-13.0424 4.90113,-19.56339 -2.86429,-4.84885 -6.6101,-5.92045 -20.69507,-5.92045 h -12.59887 v 13.5 13.5 h 12.59887 c 9.18711,0 13.46409,-0.41057 15.79394,-1.51616 z m -0.79281,-54.88384 c 4.74382,-4.74382 4.96314,-12.81752 0.48447,-17.83422 l -2.91553,-3.26578 -12.58447,-0.33156 -12.58447,-0.33155 v 12.58155 12.58156 h 12.1 12.1 z m 152.4,73.34171 v -11.05828 l 21.43178,-22.69172 21.43177,-22.69171 -21.43177,-0.2695 -21.43178,-0.2695 v -13.4805 -13.4805 h 42 42 l -0.0358,11.75 -0.0358,11.75 -20.81666,22 -20.81665,22 21.35246,0.2695 21.35245,0.2695 v 13.4805 13.4805 h -42.5 -42.5 z m 416,-36.94171 v -47 h 17.5 17.5 v 8 c 0,9.13557 0.3666,9.43894 4.50968,3.73235 10.2206,-14.07723 32.2478,-17.64933 45.6983,-7.41078 10.6937,8.1401 12.7728,18.13008 12.7844,61.42843 l 0.01,28.25 h -18 -18 v -28.54966 c 0,-35.51237 -0.6727,-37.45034 -13,-37.45034 -12.2302,0 -12.99998,2.24838 -12.99998,37.96788 v 28.03212 h -18 -18 z M 62.859096,228.35878 C 37.852146,223.37544 16.255643,205.0293 7.1179448,181.00693 -11.124486,133.04883 20.311176,81.803364 71.323856,76.340364 l 6.54891,-0.70133 0.56085,-4.63827 C 83.469736,29.351284 111.73819,1.9716845 151.57914,0.15517449 185.29318,-1.3819855 214.13863,16.967164 226.63206,47.897794 c 5.26533,13.03565 5.2937,13.55356 5.31239,96.992186 0.0191,85.16598 0.37678,80.18393 -5.99368,83.47822 -4.01661,2.07707 -152.664534,2.06848 -163.091674,-0.009 z M 92.181246,179.754 c 5.43707,-2.76938 18.383874,-15.23429 20.878804,-20.10167 3.93886,-7.68435 2.0888,-12.381 -9.24191,-23.46203 -9.716804,-9.50269 -14.599364,-12.31281 -22.663964,-13.04408 -17.48899,-1.58585 -32.5222,12.13871 -32.54976,29.71627 -0.0355,22.63192 23.46618,37.13493 43.57683,26.89151 z m 69.570404,-68.79327 c 5.77381,-2.95955 17.84272,-16.053956 20.849,-22.620546 8.98595,-19.62789 -5.46334,-41.97769 -27.13884,-41.97769 -17.50152,0 -30.02669,12.32491 -29.97931,29.5 0.0283,10.27601 2.42796,15.13032 12.72532,25.742676 11.16462,11.50615 15.77451,13.33797 23.54383,9.35556 z m 243.21016,27.81463 c -25.40221,-2.83287 -42.35987,-22.42657 -42.19707,-48.756516 0.17817,-28.81651 19.79556,-48.25635 48.69707,-48.25635 28.96273,0 46.75869,17.1932 49.00997,47.35 l 0.72787,9.75 h -32.25059 -32.25059 l 0.55792,4.159576 c 0.98165,7.31872 6.00807,11.21584 15.05519,11.6727 8.21233,0.4147 12.45117,-1.07266 15.25582,-5.35309 1.61258,-2.4611 1.73668,-2.47919 17.00942,-2.47919 17.59509,0 16.95368,-0.45867 12.32147,8.81121 -8.01651,16.04245 -29.50963,25.60272 -51.93648,23.10166 z m 23,-60.962526 c 0,-0.57731 -0.69685,-2.39721 -1.54855,-4.04422 -4.73973,-9.16564 -22.04064,-9.54799 -27.49193,-0.60757 -3.46209,5.67801 -3.40641,5.70145 13.54048,5.70145 10.15554,0 15.5,-0.36193 15.5,-1.04966 z m 223.30526,61.015676 c -14.83276,-2.09613 -23.26107,-12.12098 -25.33167,-30.13016 -0.52713,-4.58472 -0.96183,-21.273356 -0.966,-37.085856 l -0.008,-28.75 h 18 18 v 29.04966 c 0,31.368306 0.22913,32.904776 5.4137,36.301836 3.18428,2.08642 12.35863,2.19669 15.23343,0.18311 4.94777,-3.46556 5.35287,-6.26079 5.35287,-36.935736 v -28.59887 h 18 18 v 47.5 47.499996 h -17.5 -17.5 v -8 c 0,-4.66667 -0.41667,-8 -1,-8 -0.55,0 -1,0.40133 -1,0.89185 0,1.81146 -9.39658,11.26982 -13.04567,13.13145 -2.07394,1.05804 -5.72459,2.18898 -8.11256,2.51318 -2.38798,0.32421 -5.24177,0.71866 -6.34177,0.87656 -1.1,0.1579 -4.33763,-0.0433 -7.19474,-0.44702 z m 119.02953,-0.0231 c -19.74745,-1.99375 -34.37312,-12.08708 -38.67919,-26.69292 l -1.5478,-5.25 h 17.47085 c 17.19629,0 17.48437,0.0354 18.33134,2.25 1.71945,4.49603 4.81036,6.16882 12.1665,6.58448 8.44539,0.47721 11.92351,-1.22396 11.92351,-5.83185 0,-4.13669 -3.16706,-5.50315 -18.62748,-8.03696 -28.85008,-4.728246 -38.49752,-12.184626 -38.49752,-29.754216 0,-19.43688 16.22774,-30.46787 44.625,-30.33435 26.10442,0.12273 44.45968,12.23992 44.49442,29.3729 l 0.006,2.75 h -15.5 c -14.34003,0 -15.5,-0.13663 -15.5,-1.82569 0,-3.76448 -4.59775,-6.55391 -11.53024,-6.99534 -7.95539,-0.50656 -11.46976,1.27702 -11.46976,5.82103 0,4.40156 2.6898,5.55053 20,8.54316 29.29051,5.06382 37.42945,11.14083 37.19366,27.770936 -0.2996,21.12972 -23.92653,34.7518 -54.85887,31.62881 z M 248.96181,70.851224 V 3.6221145 l 34.75,0.50163 c 37.23286,0.53747 40.86476,0.97615 51.12425,6.1750195 13.25046,6.71452 19.06581,17.84079 16.91379,32.3605 -1.73327,11.69442 -8.29308,18.69114 -22.28804,23.7725 -1.58212,0.57444 -1.08729,0.89757 2.36826,1.54649 30.05516,5.64412 34.75912,47.326596 7.13174,63.195476 -9.47317,5.4413 -13.43389,5.91978 -53.25,6.43295 l -36.75,0.47365 z m 64.39281,37.495106 c 6.22586,-2.95436 8.75317,-13.042396 4.90113,-19.563386 -2.86429,-4.84885 -6.6101,-5.92045 -20.69507,-5.92045 h -12.59887 v 13.5 13.499996 h 12.59887 c 9.18711,0 13.46409,-0.41057 15.79394,-1.51616 z m -0.79281,-54.883836 c 4.74382,-4.74382 4.96314,-12.81753 0.48447,-17.83423 l -2.91553,-3.26577 -12.58447,-0.33156 -12.58447,-0.33156 v 12.58156 12.58156 h 12.1 12.1 z m 175.52351,81.149996 c -0.56738,-1.7875 -6.69734,-21.925 -13.62215,-44.749996 -6.9248,-22.825 -12.99707,-42.7375 -13.49393,-44.25 l -0.90339,-2.75 h 18.28761 18.28762 l 3.57659,15.75 c 1.96713,8.6625 4.8355,22.1625 6.37415,30 2.93724,14.961526 3.71397,16.652146 4.82405,10.5 0.65711,-3.64181 10.58441,-44.96066 12.61369,-52.5 l 1.00934,-3.75 h 14.91445 14.91445 l 1.06571,3.75 c 1.82234,6.41238 10.82168,43.42082 12.15851,50 0.69847,3.437496 1.56743,6.249996 1.93102,6.249996 0.36359,0 1.67528,-5.512496 2.91487,-12.249996 1.23958,-6.7375 3.91202,-20.125 5.93875,-29.75 l 3.68496,-17.5 18.81571,-0.27249 c 16.98364,-0.24596 18.75532,-0.11511 18.19546,1.34387 -0.34114,0.889 -6.04128,19.46163 -12.66697,41.2725 -6.62569,21.810856 -12.96029,42.468616 -14.07689,45.906116 l -2.03018,6.25 h -17.77359 -17.77359 l -5.25246,-17.75 c -2.88885,-9.7625 -6.2128,-21.462496 -7.38656,-25.999996 -2.37802,-9.19295 -3.10424,-9.98452 -4.12846,-4.5 -0.61478,3.29199 -5.46067,20.601506 -11.61816,41.499996 l -1.98881,6.75 h -17.8801 -17.88011 z m 384.37649,2.14451 c -15.92289,-1.67082 -23.75219,-8.58001 -25.55244,-22.54946 -0.48517,-3.76478 -0.89685,-15.282546 -0.91484,-25.595046 l -0.0327,-18.75 h -8 -8 v -13.5 -13.5 h 8 8 v -12.5 -12.5 h 18 18 v 12.5 12.5 h 9.5 9.5 v 13.5 13.5 h -9.5 -9.5 v 19.3 c 0,13.677776 0.34957,19.649566 1.2,20.499996 0.74056,0.74056 4.37778,1.2 9.5,1.2 h 8.3 v 13.5 13.5 l -10.25,-0.13302 c -5.6375,-0.0731 -13.85,-0.51077 -18.25,-0.97247 z"
       id="path1" />
  </g>
</svg>
