<?xml version="1.0" encoding="UTF-8" standalone="no"?>
<!-- Created with Inkscape (http://www.inkscape.org/) -->

<svg
   width="2.8378046mm"
   height="2.2499812mm"
   viewBox="0 0 2.8378046 2.2499812"
   version="1.1"
   id="svg1"
   inkscape:version="1.4.2 (ebf0e940d0, 2025-05-08)"
   sodipodi:docname="krul.svg"
   xmlns:inkscape="http://www.inkscape.org/namespaces/inkscape"
   xmlns:sodipodi="http://sodipodi.sourceforge.net/DTD/sodipodi-0.dtd"
   xmlns="http://www.w3.org/2000/svg"
   xmlns:svg="http://www.w3.org/2000/svg">
  <sodipodi:namedview
     id="namedview1"
     pagecolor="#ffffff"
     bordercolor="#000000"
     borderopacity="0.25"
     inkscape:showpageshadow="2"
     inkscape:pageopacity="0.0"
     inkscape:pagecheckerboard="0"
     inkscape:deskcolor="#d1d1d1"
     inkscape:document-units="mm"
     inkscape:zoom="67.334231"
     inkscape:cx="6.8241664"
     inkscape:cy="4.7449862"
     inkscape:window-width="2560"
     inkscape:window-height="1368"
     inkscape:window-x="0"
     inkscape:window-y="0"
     inkscape:window-maximized="1"
     inkscape:current-layer="layer1" />
  <defs
     id="defs1">
    <linearGradient
       id="swatch1"
       inkscape:swatch="solid">
      <stop
         style="stop-color:#cb0000;stop-opacity:1;"
         offset="0"
         id="stop1" />
    </linearGradient>
  </defs>
  <g
     inkscape:label="Layer 1"
     inkscape:groupmode="layer"
     id="layer1"
     transform="translate(-53.339713,-115.12493)">
    <path
       style="fill:none;stroke:#cb0000;stroke-width:0.282;stroke-linecap:round;stroke-miterlimit:10;stroke-dasharray:none;stroke-opacity:1"
       d="m 53.480713,116.56395 c 0.11843,-0.18901 0.291666,-0.53062 0.457581,-0.66989 0.247372,-0.20765 0.640178,-0.57993 0.731175,-0.6279 0.04754,-0.0251 -0.712857,0.96117 -0.663065,0.91849 0.09042,-0.0775 0.873642,-0.85908 1.008045,-0.8877 0.134403,-0.0286 0.275677,-0.0188 0.289658,0.0678 0.02683,0.16617 -1.223237,1.17536 -1.223237,1.22142 0,0.0905 0.153101,-0.0973 0.222281,-0.15559 0.272807,-0.22974 0.937263,-0.61761 1.258486,-0.77822 0.100785,-0.0504 -1.068651,1.08803 -1.093601,1.15667 -0.01363,0.0375 0.595427,-0.22286 0.635327,-0.22286 0.0432,0 0.03614,-0.0806 0.06668,-0.11114 0.07126,-0.0713 0.806792,-0.62816 0.844667,-0.53347 0.04944,0.1236 0.01646,0.15125 -0.06669,0.26674 -0.09872,0.13711 -0.197538,0.27508 -0.311192,0.4001 -0.118647,0.13051 -0.355693,0.15559 -0.533474,0.11114 -0.07198,-0.018 -0.08704,-0.088 -0.133369,-0.11114 -0.03379,-0.0169 -0.08091,-5.3e-4 -0.111138,0.0222 -0.100047,0.075 -0.173815,0.40418 -0.29043,0.60331"
       id="path1"
       sodipodi:nodetypes="cssszsscssscssssscc" />
  </g>
</svg>
