<?xml version="1.0" encoding="UTF-8" standalone="no"?>
<!-- Created with Inkscape (http://www.inkscape.org/) -->

<svg
   version="1.1"
   id="svg815"
   xml:space="preserve"
   width="336.05917"
   height="112.21797"
   viewBox="0 0 336.05917 112.21797"
   xmlns="http://www.w3.org/2000/svg"
   xmlns:svg="http://www.w3.org/2000/svg"
   xmlns:rdf="http://www.w3.org/1999/02/22-rdf-syntax-ns#"
   xmlns:cc="http://creativecommons.org/ns#"
   xmlns:dc="http://purl.org/dc/elements/1.1/"><metadata
     id="metadata821"><rdf:RDF><cc:Work
         rdf:about=""><dc:format>image/svg+xml</dc:format><dc:type
           rdf:resource="http://purl.org/dc/dcmitype/StillImage" /></cc:Work></rdf:RDF></metadata><defs
     id="defs819" /><g
     id="g823"
     transform="matrix(1.3333333,0,0,-1.3333333,-1119.2972,836.66538)"><g
       id="g2857"
       transform="matrix(0.80831262,0,0,0.80831262,169.94406,96.451189)"><g
         id="g1344"
         transform="translate(975.41288,628.42026)"><path
           d="m 0,0 c 0,0 -27.781,9.668 -30.839,12.419 -3.056,2.751 -2.2,2.077 -7.827,3.055 -5.623,0.979 -33.133,6.113 -40.773,8.865 -7.642,2.751 -9.171,3.975 -9.171,3.975 0,0 7.64,-8.194 15.283,-14.429 7.642,-6.236 20.296,-14.307 26.96,-17.974 6.663,-3.669 19.32,-10.392 24.699,-11.309 5.379,-0.918 12.895,-2.454 12.895,-2.454 l 7.579,15.098 z"
           style="fill:#1e4872;fill-opacity:1;fill-rule:nonzero;stroke:none"
           id="path1346" /></g><g
         id="g1348"
         transform="translate(975.41288,628.42026)"><path
           d="m 0,0 0.106,0.305 c -0.002,0 -0.433,0.149 -1.201,0.42 -2.676,0.943 -9.415,3.337 -15.817,5.799 -3.197,1.229 -6.315,2.476 -8.793,3.563 -1.237,0.543 -2.318,1.045 -3.164,1.486 -0.846,0.438 -1.466,0.82 -1.756,1.083 -0.763,0.688 -1.283,1.164 -1.739,1.517 -0.677,0.529 -1.236,0.773 -2.094,0.944 -0.861,0.174 -2.047,0.309 -4.152,0.673 -2.806,0.488 -11.089,2.019 -19.621,3.767 -8.529,1.748 -17.324,3.722 -21.1,5.084 -3.814,1.373 -6.097,2.363 -7.42,3.005 -0.661,0.321 -1.084,0.556 -1.335,0.708 -0.127,0.076 -0.21,0.131 -0.262,0.165 l -0.054,0.038 -0.008,0.006 -0.02,-0.026 0.021,0.026 h -10e-4 l -0.02,-0.026 0.021,0.026 -0.435,-0.469 c 0.005,-0.005 7.648,-8.201 15.316,-14.458 7.667,-6.256 20.323,-14.325 27.008,-18.006 3.333,-1.834 8.167,-4.435 12.844,-6.694 4.682,-2.258 9.189,-4.177 11.953,-4.65 2.685,-0.459 5.908,-1.072 8.457,-1.568 1.276,-0.251 2.382,-0.47 3.171,-0.627 0.787,-0.159 1.256,-0.255 1.256,-0.255 l 0.24,-0.049 7.694,15.325 L 0.433,0.19 0.106,0.305 0,0 l -0.293,0.129 -1.191,-2.746 -7.578,-15.09 0.289,-0.145 0.064,0.315 c -0.002,0 -7.517,1.537 -12.906,2.453 -2.614,0.444 -7.125,2.348 -11.782,4.597 -4.66,2.25 -9.485,4.846 -12.815,6.679 -6.642,3.655 -19.299,11.727 -26.911,17.942 -3.808,3.107 -7.625,6.711 -10.487,9.531 -1.431,1.413 -2.621,2.629 -3.455,3.493 -0.417,0.432 -0.746,0.777 -0.969,1.013 -0.223,0.232 -0.343,0.362 -0.343,0.362 l -0.233,-0.219 -0.2,-0.251 c 0.055,-0.041 1.603,-1.268 9.262,-4.025 3.864,-1.391 12.644,-3.358 21.187,-5.109 8.541,-1.753 16.826,-3.28 19.642,-3.769 2.82,-0.49 4.027,-0.574 4.826,-0.853 0.401,-0.136 0.713,-0.316 1.136,-0.642 0.422,-0.325 0.939,-0.796 1.703,-1.485 0.434,-0.388 1.211,-0.837 2.273,-1.371 C -25.069,8.948 -17.91,6.176 -11.667,3.863 -5.426,1.55 -0.106,-0.3 -0.104,-0.302 L 0,0 -0.293,0.129 Z"
           style="fill:#000000;fill-opacity:1;fill-rule:nonzero;stroke:none"
           id="path1350" /></g><g
         id="g1374"
         transform="translate(990.84518,625.31256)"><path
           d="m 0,0 c 0,0 20.904,0.308 27.875,0 6.97,-0.305 12.474,-0.305 12.474,-0.305 0,0 9.291,-2.262 16.872,-3.671 7.583,-1.406 16.749,-2.446 20.72,-2.752 3.976,-0.304 7.951,-0.916 7.951,-0.916 0,0 3.849,-0.612 -14.737,-4.587 -18.579,-3.974 -27.385,-6.116 -38.877,-7.335 -11.495,-1.223 -25.251,-1.836 -31.054,-0.611 -5.812,1.222 -7.462,1.957 -7.462,1.957 0,0 3.79,9.536 5.015,12.838 C 0,-2.083 0,0 0,0"
           style="fill:#1e4872;fill-opacity:1;fill-rule:nonzero;stroke:none"
           id="path1376" /></g><g
         id="g1378"
         transform="translate(990.84518,625.31256)"><path
           d="m 0,0 0.005,-0.323 c 0,0 0.578,0.012 1.576,0.024 3,0.033 9.782,0.114 15.971,0.114 4.126,0 7.997,-0.034 10.312,-0.138 6.974,-0.305 12.48,-0.305 12.485,-0.305 v 0.323 l -0.08,-0.312 c 0.006,0 9.302,-2.267 16.894,-3.674 7.594,-1.41 16.768,-2.448 20.756,-2.755 1.978,-0.155 3.963,-0.38 5.447,-0.57 0.742,-0.097 1.361,-0.186 1.799,-0.248 0.431,-0.057 0.675,-0.099 0.675,-0.099 l 0.017,0.099 -0.017,-0.099 0.017,0.099 -0.017,-0.099 0.097,-0.027 0.019,-0.006 0.012,0.018 -0.017,-0.018 h 0.005 l 0.012,0.018 -0.017,-0.018 0.114,0.125 h -0.161 c -0.005,-0.069 0.041,-0.119 0.047,-0.125 l 0.114,0.125 h -0.161 0.133 l -0.122,0.065 -0.011,-0.065 h 0.133 l -0.122,0.065 0.011,-0.008 -0.011,0.008 0.011,-0.008 -0.011,0.008 c 0,-0.018 -0.189,-0.19 -0.645,-0.392 -1.373,-0.636 -5.095,-1.778 -14.178,-3.716 -18.59,-3.976 -27.377,-6.117 -38.848,-7.334 -7.092,-0.756 -15.055,-1.274 -21.461,-1.274 -3.95,-0.007 -7.322,0.196 -9.497,0.656 -2.895,0.612 -4.752,1.096 -5.879,1.431 -0.565,0.169 -0.947,0.295 -1.189,0.382 -0.116,0.04 -0.202,0.074 -0.254,0.091 l -0.057,0.023 -0.012,0.009 -0.133,-0.29 0.301,-0.124 c 0,0 3.785,9.54 5.014,12.851 1.241,3.341 1.241,5.46 1.241,5.493 L 0,0 0.005,-0.323 0,0 h -0.323 v -0.088 c -0.018,-0.413 -0.146,-2.33 -1.201,-5.187 -0.612,-1.643 -1.862,-4.851 -2.964,-7.65 -0.55,-1.395 -1.063,-2.693 -1.439,-3.641 -0.374,-0.947 -0.605,-1.539 -0.611,-1.539 l -0.11,-0.283 0.283,-0.128 c 0.03,-0.017 1.697,-0.749 7.519,-1.978 2.262,-0.475 5.649,-0.671 9.629,-0.671 6.442,0 14.414,0.521 21.53,1.277 11.516,1.23 20.334,3.37 38.911,7.343 6.578,1.409 10.347,2.391 12.494,3.083 1.071,0.352 1.735,0.623 2.15,0.85 0.208,0.107 0.359,0.211 0.468,0.321 0.11,0.103 0.202,0.237 0.208,0.42 0,0.151 -0.08,0.273 -0.156,0.341 -0.109,0.104 -0.212,0.139 -0.294,0.168 -0.079,0.022 -0.143,0.033 -0.149,0.033 -0.012,0 -3.99,0.612 -7.975,0.919 -3.959,0.305 -13.125,1.344 -20.691,2.747 -3.786,0.703 -7.997,1.621 -11.269,2.36 -1.633,0.376 -3.029,0.698 -4.022,0.935 -0.987,0.23 -1.564,0.374 -1.564,0.374 l -0.039,0.006 h -0.036 c -0.005,0 -0.346,0 -0.967,0.006 C 37.51,0.035 33.108,0.087 27.891,0.319 25.556,0.422 21.685,0.457 17.552,0.457 9.29,0.457 -0.006,0.319 -0.006,0.319 L -0.323,0.312 V 0 H 0"
           style="fill:#000000;fill-opacity:1;fill-rule:nonzero;stroke:none"
           id="path1380" /></g><path
         id="path1462"
         style="fill:#ed1a3b;fill-opacity:1;fill-rule:nonzero;stroke:none"
         d="m 965.66048,607.83306 -19.383,-6.97 c 0,0 6.487,-12.721 13.208,-16.141 7.939,-4.047 13.746,-4.047 23.336,0.064 6.578,2.82 8.824,5.927 8.824,5.927 l -8.865,13.144 -11.923,2.141 z" /><path
         id="path1466"
         style="fill:#000000;fill-opacity:1;fill-rule:nonzero;stroke:none"
         d="m 965.66048,607.83306 -0.108,0.3 -19.724,-7.093 0.165,-0.325 c 0.004,-0.007 1.63,-3.196 4.104,-6.821 2.478,-3.626 5.783,-7.691 9.243,-9.459 3.978,-2.027 7.462,-3.06 11.15,-3.06 3.718,0 7.624,1.045 12.456,3.116 6.635,2.841 8.927,5.991 8.956,6.031 l 0.132,0.184 -9.066,13.442 -12.029,2.158 -5.281,1.864 -0.106,-0.037 0.108,-0.3 -0.106,-0.304 5.221,-1.844 11.815,-2.119 8.788,-13.033 0.267,0.18 -0.261,0.186 -0.003,-0.004 c -0.11,-0.145 -2.368,-3.105 -8.687,-5.815 -4.793,-2.054 -8.61,-3.064 -12.204,-3.064 -3.565,0 -6.932,0.991 -10.86,2.989 -3.262,1.656 -6.561,5.659 -9.005,9.25 -1.224,1.796 -2.239,3.485 -2.95,4.725 -0.356,0.621 -0.633,1.129 -0.822,1.481 -0.19,0.351 -0.289,0.547 -0.289,0.547 l -0.287,-0.145 0.111,-0.304 19.381,6.97 -0.109,0.304 -0.106,-0.304 z" /><path
         id="path1470"
         style="fill:#ffffff;fill-opacity:1;fill-rule:nonzero;stroke:none"
         d="m 974.62398,628.54306 4.81,1.289 c 0,0 0.636,1.907 2.343,3.427 0.436,0.388 0.795,1.409 1.614,1.775 2.685,1.201 2.872,1.527 4.34,0.305 1.467,-1.224 2.08,-5.198 2.08,-5.198 l 0.609,-2.504 0.615,-2.08 c 0,0 0.166,-2.541 -1.655,-7.725 -3.109,-8.844 -2.933,-10.308 -6.6,-13.977 -3.67,-3.668 -5.81,-5.197 -5.81,-5.197 l -2.018,-4.024 c 0,0 -1.162,-7.285 -2.629,-7.591 -1.467,-0.308 -2.935,1.222 -1.467,3.056 1.467,1.834 3.114,6.727 3.114,6.727 0,0 -0.045,1.27 -1.819,0.048 -1.774,-1.223 -1.969,-0.248 -3.374,-3.058 -1.408,-2.812 -1.996,-4.691 -1.996,-4.691 0,0 -0.94,1.302 -0.329,4.053 0.613,2.749 -0.243,1.901 -0.243,5.876 0,3.973 -0.916,7.496 0,9.94 0.918,2.447 3.536,9.128 5.381,12.589 1.835,3.448 3.034,6.96 3.034,6.96" /><path
         id="path1474"
         style="fill:#000000;fill-opacity:1;fill-rule:nonzero;stroke:none"
         d="m 974.62398,628.54306 0.084,-0.309 4.977,1.333 0.053,0.163 0.006,0.017 c 0.064,0.186 0.712,1.909 2.248,3.272 0.281,0.258 0.473,0.617 0.712,0.95 0.233,0.336 0.495,0.629 0.816,0.771 0.764,0.341 1.324,0.611 1.753,0.791 0.432,0.18 0.728,0.262 0.955,0.26 0.176,-0.002 0.331,-0.042 0.537,-0.15 0.203,-0.107 0.448,-0.288 0.762,-0.549 0.31,-0.256 0.608,-0.7 0.859,-1.219 0.38,-0.785 0.659,-1.734 0.842,-2.484 0.092,-0.376 0.158,-0.7 0.201,-0.931 0.043,-0.23 0.063,-0.364 0.063,-0.364 l 0.003,-0.014 0.616,-2.527 0.614,-2.087 0.31,0.091 -0.323,-0.021 0.003,-0.035 c 0,-0.03 0.002,-0.071 0.002,-0.131 0,-0.635 -0.113,-3.09 -1.64,-7.429 -1.555,-4.43 -2.293,-7.015 -3.084,-8.916 -0.793,-1.897 -1.623,-3.121 -3.441,-4.944 -1.828,-1.827 -3.273,-3.123 -4.261,-3.955 -0.493,-0.418 -0.871,-0.722 -1.127,-0.92 -0.127,-0.098 -0.222,-0.172 -0.287,-0.219 -0.062,-0.046 -0.094,-0.068 -0.094,-0.068 l -0.065,-0.045 -2.075,-4.141 -0.009,-0.048 c 0,0 -0.016,-0.113 -0.052,-0.311 -0.119,-0.693 -0.44,-2.438 -0.89,-4.032 -0.221,-0.795 -0.48,-1.551 -0.748,-2.107 -0.134,-0.278 -0.272,-0.504 -0.398,-0.654 -0.126,-0.156 -0.237,-0.216 -0.287,-0.226 -0.105,-0.023 -0.212,-0.032 -0.315,-0.032 -0.371,0 -0.719,0.137 -0.968,0.364 -0.252,0.225 -0.406,0.537 -0.407,0.917 0,0.359 0.143,0.798 0.538,1.295 0.776,0.975 1.55,2.664 2.154,4.129 0.599,1.464 1.012,2.692 1.014,2.696 l 0.02,0.056 -0.004,0.059 c -0.004,0.026 -0.006,0.21 -0.117,0.425 -0.056,0.11 -0.145,0.228 -0.279,0.315 -0.135,0.094 -0.31,0.148 -0.505,0.148 -0.379,-0.003 -0.817,-0.174 -1.424,-0.588 -0.847,-0.587 -1.274,-0.62 -1.802,-0.922 -0.261,-0.151 -0.513,-0.366 -0.772,-0.714 -0.262,-0.352 -0.546,-0.832 -0.902,-1.544 -1.416,-2.831 -2.013,-4.727 -2.017,-4.738 l 0.308,-0.096 0.257,0.187 c -0.029,0.046 -0.469,0.717 -0.471,2.096 0,0.48 0.052,1.046 0.198,1.7 0.164,0.738 0.228,1.236 0.228,1.648 0,0.584 -0.127,0.959 -0.238,1.514 -0.111,0.556 -0.223,1.337 -0.223,2.784 -0.002,2.682 -0.411,5.14 -0.409,7.163 0,1.008 0.102,1.905 0.387,2.665 0.913,2.436 3.534,9.125 5.363,12.552 1.85,3.473 3.05,6.994 3.054,7.006 l -0.303,0.103 0.084,-0.309 -0.084,0.309 -0.304,0.104 c 0,-0.002 -0.072,-0.217 -0.214,-0.595 -0.418,-1.144 -1.434,-3.753 -2.799,-6.318 -1.863,-3.495 -4.476,-10.171 -5.398,-12.626 -0.324,-0.871 -0.427,-1.842 -0.427,-2.891 10e-4,-2.106 0.408,-4.547 0.408,-7.163 0,-1.479 0.118,-2.318 0.237,-2.91 0.123,-0.6 0.225,-0.912 0.225,-1.388 0,-0.345 -0.055,-0.797 -0.214,-1.509 -0.154,-0.699 -0.213,-1.311 -0.213,-1.839 -0.002,-1.618 0.562,-2.43 0.595,-2.472 l 0.374,-0.518 0.19,0.61 0.027,0.081 c 0.128,0.387 0.729,2.119 1.953,4.562 0.345,0.696 0.614,1.146 0.837,1.441 0.345,0.448 0.547,0.548 0.898,0.704 0.351,0.148 0.841,0.317 1.532,0.795 0.546,0.38 0.897,0.475 1.059,0.475 0.084,-0.002 0.12,-0.019 0.148,-0.037 0.04,-0.023 0.072,-0.078 0.091,-0.139 l 0.02,-0.076 0.002,-0.02 0.031,10e-4 h -0.031 v -10e-4 l 0.031,10e-4 h -0.031 l 0.319,0.011 -0.302,0.102 c -0.002,0 -0.105,-0.302 -0.278,-0.784 -0.266,-0.726 -0.695,-1.861 -1.195,-2.979 -0.5,-1.116 -1.073,-2.224 -1.59,-2.867 -0.463,-0.577 -0.679,-1.159 -0.679,-1.694 0,-0.566 0.244,-1.055 0.618,-1.394 0.375,-0.338 0.874,-0.528 1.4,-0.528 0.146,0 0.296,0.016 0.444,0.046 0.307,0.067 0.53,0.279 0.726,0.533 0.34,0.456 0.624,1.124 0.884,1.887 0.769,2.284 1.268,5.424 1.27,5.436 l -0.316,0.05 0.287,-0.145 2.016,4.026 -0.285,0.143 0.186,-0.261 c 0.014,0.01 2.168,1.549 5.85,5.232 1.85,1.844 2.766,3.188 3.579,5.149 0.816,1.96 1.547,4.533 3.098,8.95 1.547,4.401 1.676,6.931 1.675,7.642 0,0.133 -0.006,0.202 -0.006,0.208 l -0.003,0.036 -0.617,2.105 -0.611,2.498 -0.31,-0.076 0.317,0.05 c -0.002,0.008 -0.158,1.012 -0.501,2.182 -0.169,0.583 -0.388,1.209 -0.663,1.779 -0.275,0.566 -0.603,1.079 -1.027,1.434 -0.327,0.272 -0.6,0.478 -0.873,0.623 -0.27,0.144 -0.547,0.225 -0.836,0.223 -0.376,-0.002 -0.742,-0.121 -1.202,-0.31 -0.456,-0.19 -1.013,-0.458 -1.766,-0.797 -0.498,-0.223 -0.822,-0.622 -1.08,-0.985 -0.255,-0.366 -0.462,-0.711 -0.615,-0.841 -1.776,-1.586 -2.423,-3.539 -2.436,-3.567 l 0.305,-0.1 -0.082,0.308 -4.975,-1.332 -0.057,-0.161 z" /><path
         id="path1478"
         style="fill:#b1b4b6;fill-opacity:1;fill-rule:nonzero;stroke:none"
         d="m 972.85988,596.75926 c -1.194,-0.343 -1.531,-0.497 -2.517,-1.417 -1.217,-1.136 -2.767,-2.91 -2.767,-2.91 0,0 -0.805,-1.934 -0.989,-0.834 -0.183,1.098 0.187,2.06 0.187,2.06 0,0 -0.404,1.085 -0.526,1.494 -0.276,0.934 -0.549,2.313 -0.742,3.998 -0.303,2.681 -0.572,7.19 -0.258,9.278 0.213,1.423 0.802,2.385 0.802,2.385 l 2.457,5.119 2.897,5.866 3.108,6.888 2.844,0.908 2.108,0.551 c 0,0 0.799,1.413 1.468,2.458 0.439,0.686 0.472,0.747 1.502,1.751 1.141,1.113 2.187,1.079 2.187,1.079 l 0.287,-1.895 c 0,0 -0.216,-9.412 0,-11.607 0.201,-2.087 0.762,-2.241 -0.766,-6.551 -1.528,-4.309 -2.109,-5.072 -3.973,-8.434 -1.866,-3.364 -6.115,-10.088 -6.115,-10.088 0,0 -0.18,0.19 -1.194,-0.099" /><path
         id="path1482"
         style="fill:#000000;fill-opacity:1;fill-rule:nonzero;stroke:none"
         d="m 972.85988,596.75926 -0.087,0.307 c -0.602,-0.173 -1.01,-0.302 -1.405,-0.517 -0.392,-0.22 -0.746,-0.509 -1.243,-0.972 -1.24,-1.155 -2.786,-2.929 -2.79,-2.933 l -0.035,-0.041 -0.02,-0.046 c 0,0 -0.027,-0.069 -0.076,-0.174 -0.073,-0.158 -0.19,-0.397 -0.308,-0.581 -0.055,-0.092 -0.116,-0.17 -0.155,-0.211 l -0.031,-0.028 0.076,-0.127 v 0.143 l -0.076,-0.016 0.076,-0.127 v 0.143 -0.208 l 0.112,0.176 -0.112,0.032 v -0.208 l 0.112,0.176 -0.084,-0.129 0.125,0.092 -0.041,0.037 -0.084,-0.129 0.125,0.092 -0.047,-0.034 0.049,0.03 -0.002,0.004 -0.047,-0.034 0.049,0.03 -0.012,0.034 -0.026,0.11 c -0.032,0.199 -0.045,0.395 -0.045,0.583 -0.002,0.372 0.055,0.706 0.108,0.943 0.029,0.119 0.056,0.212 0.075,0.276 l 0.025,0.07 0.007,0.019 0.044,0.114 -0.043,0.113 c 0,10e-4 -0.102,0.272 -0.216,0.592 -0.116,0.321 -0.248,0.696 -0.305,0.885 -0.268,0.904 -0.538,2.274 -0.728,3.942 -0.206,1.817 -0.396,4.499 -0.396,6.662 0,1.005 0.042,1.899 0.136,2.532 0.102,0.677 0.294,1.251 0.461,1.65 0.081,0.2 0.157,0.357 0.214,0.46 l 0.063,0.12 0.016,0.028 0.005,0.007 0.008,0.014 2.466,5.13 2.895,5.872 3.054,6.761 2.697,0.863 2.233,0.581 0.067,0.119 c 0,0.002 0.198,0.351 0.48,0.834 0.281,0.483 0.647,1.095 0.979,1.611 0.222,0.347 0.326,0.513 0.503,0.721 0.178,0.209 0.437,0.47 0.951,0.973 1.004,0.978 1.9,0.987 1.953,0.988 v 0.03 -0.03 0.03 -0.03 l 0.011,0.32 -0.317,-0.046 0.287,-1.898 0.317,0.049 -0.32,0.007 c 0,-10e-4 -0.097,-4.195 -0.097,-7.642 0.002,-1.72 0.024,-3.245 0.097,-4.004 0.097,-1.01 0.27,-1.557 0.267,-2.261 10e-4,-0.792 -0.207,-1.877 -1.014,-4.147 -1.527,-4.301 -2.08,-5.013 -3.953,-8.391 -0.928,-1.672 -2.455,-4.191 -3.749,-6.291 -0.648,-1.05 -1.237,-1.994 -1.663,-2.675 -0.429,-0.684 -0.692,-1.103 -0.693,-1.105 l 0.271,-0.171 0.231,0.222 c -0.078,0.083 -0.24,0.161 -0.523,0.161 -0.223,-0.003 -0.53,-0.044 -0.989,-0.175 l 0.087,-0.307 0.089,-0.308 c 0.421,0.119 0.674,0.149 0.813,0.149 0.09,0 0.127,-0.014 0.128,-0.014 l 0.062,0.175 -0.132,-0.124 0.07,-0.051 0.062,0.175 -0.132,-0.124 0.283,-0.297 0.221,0.348 c 0.002,0.002 4.248,6.724 6.125,10.101 1.857,3.348 2.464,4.166 3.996,8.484 0.814,2.296 1.051,3.45 1.051,4.365 -0.002,0.817 -0.18,1.375 -0.271,2.323 -0.069,0.7 -0.094,2.233 -0.094,3.942 0,1.718 0.025,3.623 0.049,5.103 0.024,1.477 0.046,2.522 0.046,2.524 v 0.027 l -0.327,2.187 -0.264,0.01 h -0.025 c -0.165,0.003 -1.253,-0.053 -2.401,-1.171 -0.515,-0.502 -0.785,-0.772 -0.992,-1.016 -0.208,-0.245 -0.336,-0.45 -0.553,-0.789 -0.678,-1.058 -1.478,-2.473 -1.48,-2.476 l 0.28,-0.157 -0.08,0.309 -2.121,-0.552 -2.986,-0.954 -3.164,-7.012 -2.892,-5.866 -2.461,-5.118 0.29,-0.139 -0.274,0.168 c -0.012,-0.023 -0.619,-1.018 -0.845,-2.505 -0.103,-0.691 -0.143,-1.604 -0.143,-2.627 0,-2.2 0.19,-4.89 0.399,-6.735 0.195,-1.699 0.467,-3.091 0.752,-4.053 0.13,-0.434 0.532,-1.51 0.534,-1.516 l 0.301,0.113 -0.301,0.115 c -0.007,-0.024 -0.257,-0.668 -0.257,-1.54 0,-0.219 0.016,-0.449 0.054,-0.69 0.027,-0.144 0.056,-0.261 0.127,-0.374 0.037,-0.056 0.081,-0.115 0.15,-0.159 0.068,-0.046 0.157,-0.073 0.239,-0.073 0.145,0.004 0.24,0.063 0.314,0.117 0.126,0.099 0.213,0.22 0.304,0.348 0.254,0.389 0.465,0.901 0.467,0.908 l -0.295,0.122 0.242,-0.21 c 0,0 0.094,0.108 0.259,0.294 0.489,0.547 1.586,1.754 2.484,2.591 0.488,0.456 0.796,0.701 1.116,0.879 0.321,0.178 0.676,0.293 1.272,0.465 z" /><path
         id="path1486"
         style="fill:#000000;fill-opacity:1;fill-rule:nonzero;stroke:none"
         d="m 984.84978,633.03236 c 0,0 -2.381,-2.339 -2.381,-3.962 0,-1.622 1.179,-3.194 1.179,-3.194 l 1.202,0.393 c 0,0 1.415,1.301 1.047,2.801 -0.366,1.501 -1.047,3.962 -1.047,3.962" /><path
         id="path1490"
         style="fill:#000000;fill-opacity:1;fill-rule:nonzero;stroke:none"
         d="m 984.84978,633.03236 -0.223,0.23 c -0.009,-0.007 -0.611,-0.6 -1.222,-1.409 -0.308,-0.405 -0.613,-0.863 -0.85,-1.336 -0.235,-0.473 -0.405,-0.962 -0.407,-1.447 0.002,-0.887 0.317,-1.725 0.624,-2.346 0.308,-0.622 0.614,-1.029 0.622,-1.042 l 0.136,-0.183 1.486,0.487 0.051,0.047 c 0.012,0.011 0.304,0.282 0.603,0.728 0.298,0.445 0.609,1.07 0.609,1.802 0.002,0.19 -0.021,0.385 -0.069,0.585 -0.37,1.506 -1.051,3.969 -1.051,3.971 l -0.146,0.525 -0.386,-0.382 0.223,-0.23 -0.309,-0.084 c 0,-0.002 0.171,-0.614 0.386,-1.417 0.216,-0.801 0.477,-1.792 0.66,-2.536 0.035,-0.147 0.052,-0.291 0.052,-0.432 0.002,-0.54 -0.243,-1.063 -0.501,-1.447 -0.129,-0.191 -0.257,-0.347 -0.352,-0.453 l -0.116,-0.121 -0.029,-0.029 -0.006,-0.008 0.215,-0.236 -0.1,0.304 -1.201,-0.393 0.099,-0.304 0.257,0.191 -0.009,0.014 c -0.056,0.077 -0.339,0.479 -0.603,1.034 -0.264,0.557 -0.505,1.268 -0.503,1.955 -0.002,0.328 0.127,0.741 0.338,1.161 0.315,0.634 0.804,1.284 1.213,1.769 0.205,0.243 0.39,0.446 0.523,0.586 0.065,0.071 0.119,0.127 0.155,0.163 l 0.054,0.056 -0.223,0.227 -0.309,-0.084 z" /><path
         id="path1494"
         style="fill:#000000;fill-opacity:1;fill-rule:nonzero;stroke:none"
         d="m 982.30838,632.73466 c 0.217,0 0.397,0.233 0.397,0.519 0,0.289 -0.18,0.52 -0.397,0.52 -0.221,0 -0.399,-0.231 -0.399,-0.52 0,-0.286 0.178,-0.519 0.399,-0.519" /><path
         id="path1498"
         style="fill:#000000;fill-opacity:1;fill-rule:nonzero;stroke:none"
         d="m 982.30838,632.73466 v -0.322 c 0.227,0 0.419,0.123 0.536,0.279 0.118,0.157 0.18,0.353 0.18,0.562 0,0.21 -0.062,0.405 -0.18,0.564 -0.117,0.154 -0.309,0.277 -0.536,0.277 -0.231,0 -0.421,-0.123 -0.536,-0.277 -0.121,-0.159 -0.184,-0.354 -0.184,-0.564 0,-0.209 0.063,-0.405 0.184,-0.562 0.115,-0.156 0.305,-0.279 0.536,-0.279 v 0.322 0.32 10e-4 c -0.014,0.002 -0.081,0.079 -0.079,0.198 0,0.078 0.026,0.141 0.05,0.175 l 0.029,0.025 h -0.002 c 0.016,-0.002 0.081,-0.082 0.079,-0.2 0,-0.077 -0.025,-0.141 -0.052,-0.173 l -0.027,-0.025 0.002,-10e-4 z" /><path
         id="path1502"
         style="fill:#000000;fill-opacity:1;fill-rule:nonzero;stroke:none"
         d="m 976.84838,598.97466 -0.215,1.581 -2.368,-3.16 -0.934,-2.299 c 0,0 -0.718,-2.224 -1.221,-3.086 -0.502,-0.861 -1.723,-2.301 -1.796,-2.871 -0.114,-0.905 -0.072,-0.935 0.431,-1.437 0.504,-0.502 1.006,-0.717 1.437,-0.502 0.431,0.216 1.58,1.725 1.723,2.658 0.144,0.931 0.861,3.613 0.861,4.282 0,0.669 1.651,3.542 1.651,3.542 l 0.575,1.004 z" /><path
         id="path1506"
         style="fill:#000000;fill-opacity:1;fill-rule:nonzero;stroke:none"
         d="m 970.92538,599.61596 -0.215,1.585 -2.377,-3.168 -0.936,-2.304 c 0,0 -0.721,-2.23 -1.224,-3.095 -0.505,-0.862 -1.746,-2.304 -1.799,-2.876 -0.074,-0.771 -0.094,-1.041 0.393,-1.538 0.489,-0.499 1.006,-0.503 1.477,-0.404 0.479,0.096 1.447,1.758 1.729,2.662 0.301,0.967 0.864,3.622 0.864,4.292 0,0.671 1.655,3.549 1.655,3.549 l 0.576,1.011 z" /><path
         id="path1510"
         style="fill:#000000;fill-opacity:1;fill-rule:nonzero;stroke:none"
         d="m 970.92538,599.61596 0.318,0.043 -0.323,2.358 -2.87,-3.827 -0.956,-2.351 -0.003,-0.011 c 0,0 -0.043,-0.136 -0.119,-0.357 -0.111,-0.332 -0.291,-0.849 -0.489,-1.36 -0.198,-0.51 -0.416,-1.023 -0.586,-1.315 -0.235,-0.402 -0.67,-0.978 -1.055,-1.523 -0.193,-0.273 -0.373,-0.54 -0.513,-0.786 -0.139,-0.247 -0.248,-0.459 -0.276,-0.699 -0.02,-0.23 -0.04,-0.424 -0.042,-0.608 0,-0.212 0.032,-0.419 0.118,-0.619 0.089,-0.197 0.223,-0.376 0.409,-0.565 0.393,-0.41 0.86,-0.554 1.265,-0.553 0.18,0 0.35,0.025 0.505,0.056 0.138,0.031 0.237,0.094 0.334,0.167 0.322,0.259 0.641,0.713 0.942,1.223 0.299,0.51 0.559,1.058 0.693,1.492 0.16,0.508 0.375,1.414 0.556,2.29 0.089,0.437 0.169,0.865 0.226,1.23 0.06,0.369 0.098,0.662 0.098,0.869 -0.002,0.021 0.017,0.125 0.057,0.251 0.142,0.454 0.536,1.254 0.889,1.924 0.176,0.335 0.344,0.638 0.466,0.86 0.124,0.221 0.201,0.356 0.201,0.356 l 0.004,0.006 0.658,1.151 -0.221,0.441 -0.286,-0.143 0.318,0.043 -0.318,-0.043 -0.286,-0.143 0.065,-0.136 -0.489,-0.857 c -10e-4,-0.002 -0.416,-0.725 -0.833,-1.535 -0.211,-0.405 -0.421,-0.834 -0.582,-1.21 -0.08,-0.188 -0.148,-0.364 -0.197,-0.522 -0.051,-0.161 -0.084,-0.296 -0.088,-0.443 0.002,-0.127 -0.031,-0.417 -0.087,-0.767 -0.168,-1.055 -0.541,-2.733 -0.761,-3.431 -0.127,-0.41 -0.433,-1.04 -0.755,-1.558 -0.163,-0.26 -0.33,-0.493 -0.475,-0.657 -0.072,-0.082 -0.138,-0.143 -0.188,-0.184 l -0.059,-0.04 -0.013,-0.004 0.01,-0.024 -0.006,0.024 h -0.004 l 0.01,-0.024 -0.006,0.024 c -0.13,-0.027 -0.256,-0.043 -0.378,-0.043 -0.275,0.004 -0.516,0.071 -0.807,0.357 -0.156,0.161 -0.236,0.278 -0.279,0.376 -0.043,0.101 -0.062,0.198 -0.062,0.361 0,0.138 0.015,0.318 0.038,0.547 -0.002,0.048 0.066,0.228 0.191,0.443 0.185,0.321 0.479,0.729 0.773,1.139 0.297,0.411 0.59,0.818 0.794,1.165 0.272,0.473 0.577,1.248 0.823,1.923 0.244,0.672 0.427,1.232 0.427,1.234 l -0.304,0.098 0.296,-0.12 0.92,2.265 1.883,2.509 0.117,-0.862 0.026,-0.048 z" /><path
         id="path1514"
         style="fill:#000000;fill-opacity:1;fill-rule:nonzero;stroke:none"
         d="m 989.05728,630.92996 c 0.219,0 0.397,0.232 0.397,0.518 0,0.291 -0.178,0.521 -0.397,0.521 -0.221,0 -0.397,-0.23 -0.397,-0.521 0,-0.286 0.176,-0.518 0.397,-0.518" /><path
         id="path1518"
         style="fill:#000000;fill-opacity:1;fill-rule:nonzero;stroke:none"
         d="m 989.05728,630.92996 v -0.32 c 0.227,0 0.419,0.122 0.536,0.277 0.12,0.157 0.18,0.352 0.183,0.561 -0.003,0.211 -0.063,0.407 -0.183,0.565 -0.117,0.154 -0.309,0.277 -0.536,0.277 -0.227,0 -0.421,-0.123 -0.536,-0.277 -0.121,-0.158 -0.182,-0.354 -0.182,-0.565 0,-0.209 0.061,-0.404 0.182,-0.561 0.115,-0.155 0.309,-0.277 0.536,-0.277 v 0.32 0.321 c -0.014,0.002 -0.081,0.08 -0.077,0.197 0,0.079 0.025,0.141 0.05,0.174 l 0.027,0.026 c 0.014,-0.002 0.079,-0.081 0.076,-0.2 10e-4,-0.078 -0.024,-0.14 -0.051,-0.17 l -0.025,-0.027 z" /></g><g
       id="g1520"
       transform="translate(1018.1789,548.11257)"><path
         d="m -38.273,9.168 v 5.321 h 2.276 c 2.498,0 3.653,-0.8 3.653,-2.629 0,-1.765 -1.058,-2.692 -3.494,-2.692 z M -40.677,0 h 2.404 v 7.341 h 0.287 c 1.058,0 1.442,-0.195 3.206,-2.629 L -31.382,0 h 2.819 l -4.102,5.448 c -1.023,1.349 -1.571,1.924 -1.89,2.149 v 0.064 c 2.595,0.226 4.68,1.475 4.68,4.295 0,2.916 -2.148,4.456 -5.898,4.456 h -4.904 z m -12.568,1.7 c -3.976,0 -6.025,3.042 -6.025,6.57 0,3.465 2.116,6.474 6.056,6.474 3.977,0 5.995,-3.043 5.995,-6.571 0,-3.493 -2.083,-6.473 -6.026,-6.473 m 0.031,-1.989 c 5.387,0 8.528,4.072 8.528,8.559 0,4.488 -3.173,8.463 -8.559,8.463 -5.418,0 -8.557,-4.039 -8.557,-8.56 0,-4.488 3.203,-8.462 8.588,-8.462 M -73.281,1.7 c -3.972,0 -6.026,3.042 -6.026,6.57 0,3.465 2.117,6.474 6.062,6.474 3.972,0 5.992,-3.043 5.992,-6.571 0,-3.493 -2.082,-6.473 -6.028,-6.473 m 0.036,-1.989 c 5.382,0 8.526,4.072 8.526,8.559 0,4.488 -3.173,8.463 -8.562,8.463 -5.414,0 -8.558,-4.039 -8.558,-8.56 0,-4.488 3.207,-8.462 8.594,-8.462 M -92.258,0 h 2.34 l 6.381,16.412 h -2.309 L -90.012,5.29 c -0.482,-1.253 -0.994,-2.823 -0.994,-2.823 h -0.064 c 0,0 -0.513,1.604 -0.995,2.823 l -4.326,11.122 h -2.501 z m -21.059,-4.777 c 2.661,0 4.103,1.604 4.103,4.519 v 16.67 h -2.403 V 0.095 c 0,-1.923 -0.64,-2.786 -2.019,-2.786 -0.482,0 -0.866,0.126 -1.057,0.222 l -0.353,-2.05 c 0.255,-0.13 0.832,-0.258 1.729,-0.258 M -119.696,0 h 2.405 v 16.412 h -2.405 z m -10.801,0 h 2.435 v 14.425 h 5.034 v 1.987 h -12.503 v -1.987 h 5.034 z m -15.865,9.168 v 5.321 h 2.275 c 2.502,0 3.655,-0.8 3.655,-2.629 0,-1.765 -1.057,-2.692 -3.494,-2.692 z M -148.766,0 h 2.404 v 7.341 h 0.289 c 1.056,0 1.442,-0.195 3.205,-2.629 L -139.47,0 h 2.821 l -4.102,5.448 c -1.026,1.349 -1.571,1.924 -1.892,2.149 v 0.064 c 2.597,0.226 4.679,1.475 4.679,4.295 0,2.916 -2.147,4.456 -5.9,4.456 h -4.902 z m -7.915,5.768 h -6.317 l 2.083,5.419 c 0.512,1.346 1.028,2.949 1.028,2.949 h 0.063 c 0,0 0.481,-1.539 1.026,-2.949 z m -7.087,-2.018 h 7.854 L -154.44,0 h 2.502 l -6.668,16.412 h -2.34 L -167.551,0 h 2.34 z m -12.534,4.586 v 6.153 h 2.116 c 2.886,0 4.007,-1.026 4.007,-3.012 0,-2.183 -1.25,-3.141 -4.069,-3.141 z M -178.706,0 h 2.404 v 6.378 h 2.054 c 4.038,0 6.473,1.763 6.473,5.194 0,3.333 -2.628,4.84 -6.187,4.84 h -4.744 z"
         style="fill:#000000;fill-opacity:1;fill-rule:nonzero;stroke:none"
         id="path1522" /></g><text
       xml:space="preserve"
       style="font-style:normal;font-variant:normal;font-weight:bold;font-stretch:normal;font-size:22px;font-family:System-ui;-inkscape-font-specification:'System-ui Bold';text-align:center;writing-mode:lr-tb;direction:ltr;text-anchor:middle;white-space:pre;inline-size:95.049;display:inline;fill:#000000;fill-opacity:1;stroke-width:4.2;stroke-miterlimit:10"
       x="1200.5551"
       y="-568.19232"
       id="text1"
       transform="matrix(1.0362944,0,0,-1.0362944,-200.94392,-40.965169)"><tspan
         x="1200.5551"
         y="-568.19232"
         id="tspan2">FACISME</tspan></text></g></svg>
