<?xml version="1.0" encoding="UTF-8" standalone="no"?>
<!-- Created with Inkscape (http://www.inkscape.org/) -->

<svg
   version="1.1"
   id="svg1"
   width="5781"
   height="2124"
   viewBox="0 0 5781 2124"
   xmlns="http://www.w3.org/2000/svg"
   xmlns:svg="http://www.w3.org/2000/svg">
  <defs
     id="defs1">
    <rect
       x="-4.0838251"
       y="0"
       width="4108.3281"
       height="2323.6965"
       id="rect1" />
  </defs>
  <g
     id="g1">
    <path
       id="path4"
       style="fill:#e60005;fill-opacity:1"
       d="m 5069.3899,2077.8635 c -2.9333,-0.2825 -12.2333,-1.1626 -20.6666,-1.9559 -78.4894,-7.383 -165.8461,-36.1833 -231.8451,-76.4362 -166.1909,-101.3599 -251.9927,-269.8841 -230.2001,-452.1381 21.8675,-182.8798 131.6573,-324.4319 274.9582,-354.5038 25.4559,-5.342 40.7612,-6.577 71.6778,-5.7841 48.0551,1.2326 84.5205,10.6106 130.0758,33.4525 20.4271,10.2423 19.9482,7.5276 7.9465,45.0519 -5.4705,17.1042 -10.9027,32.0589 -12.0715,33.2327 -1.8614,1.8694 -10.0501,2.2537 -66,3.097 -62.4631,0.9415 -63.9413,1.0249 -66.875,3.7741 -3.6572,3.4271 -3.983,10.2764 -0.6666,14.0138 1.2833,1.4463 24.3155,18.6017 51.1826,38.1233 37.476,27.2298 49.0531,36.3055 49.7245,38.9806 0.6356,2.5324 -4.2502,19.3078 -17.8493,61.2852 -10.2985,31.789 -18.7245,59.3582 -18.7245,61.2648 0,4.3675 5.5193,10.012 9.79,10.012 3.7705,0 5.6793,-1.2962 62.341,-42.3333 30.5245,-22.1074 43.8292,-31 46.3806,-31 2.5675,0 17.8677,10.3524 54.1914,36.6667 27.8376,20.1666 51.6393,36.6666 52.8927,36.6666 4.3,0 8.892,-3.0157 10.4989,-6.895 1.464,-3.5344 -0.082,-9.1134 -17.2432,-62.2399 -10.3683,-32.0966 -18.8514,-59.6382 -18.8514,-61.2036 0,-4.6925 4.0916,-8.0701 51.3333,-42.3743 24.9334,-18.1051 46.9834,-34.4636 49,-36.3523 4.5212,-4.234 4.7713,-9.5452 0.6667,-14.1566 l -3,-3.3703 -64.4031,-0.9115 c -63.0027,-0.8917 -64.4449,-0.9713 -66.3276,-3.6592 -2.551,-3.6421 -20.6026,-59.6572 -20.6026,-63.931 0,-5.0099 5.3999,-8.7226 27.3342,-18.7936 48.2082,-22.1345 84.8254,-29.7217 137.2012,-28.4284 95.3998,2.3555 177.5347,46.74 240.234,129.819 82.8312,109.7545 113.6554,272.8515 76.5449,405.0138 -52.8549,188.2331 -228.4998,328.1279 -443.981,353.6149 -16.9379,2.0034 -91.1159,3.703 -104.6667,2.3982 z M 3304.7234,1061.9438 V 49.220859 l 334.3332,0.50233 c 237.6016,0.35699 340.3128,0.95242 355,2.05798 158.7632,11.95064 254.4416,33.63091 340,77.042431 66.7286,33.85743 112.0879,73.91755 154.5678,136.50975 52.9052,77.9536 79.5911,163.1409 90.8459,290 2.2574,25.4445 3.1601,139.3042 1.3565,171.0958 -14.041,247.4981 -97.6761,409.61465 -251.7145,487.91815 -107.1425,54.4645 -200.0515,69.568 -428.389,69.6398 -34.1,0.011 -75.05,0.4135 -91,0.8952 l -29,0.8757 v 394.4543 394.4544 h -238 -237.9999 z m 577.2904,-141.95765 c 71.184,-3.595 115.3122,-15.4681 154.0428,-41.4464 37.4827,-25.1412 63.2263,-87.9916 70.1263,-171.2064 1.9997,-24.1172 0.7601,-95.1431 -2.0594,-118 -7.9034,-64.0689 -24.8261,-107.7023 -52.7542,-136.0209 -32.192,-32.6422 -70.3595,-39.9173 -209.646,-39.9603 l -61,-0.019 v 254 254 l 37.6666,-0.018 c 20.7167,-0.01 49.3475,-0.608 63.6239,-1.329 z" />
    <path
       style="fill:#e60005;fill-opacity:1"
       d="M 560.03643,2122.6448 C 411.84386,2115.2241 292.00888,2079.9958 197.16723,2015.9707 94.806991,1946.8701 26.961101,1843.8915 2.6106915,1720.6667 -7.0011385,1672.0262 -8.1571685,1649.5286 -8.1629285,1511 l -0.005,-113.6667 H 211.7275 431.62293 l 0.57588,91 c 0.47975,75.8109 0.94777,93.5594 2.80397,106.3334 15.29065,105.2276 67.60616,156.53 167.26824,164.0291 90.84135,6.8353 153.1345,-44.7187 172.81379,-143.0212 19.18199,-95.8184 -7.39179,-181.7262 -76.20036,-246.3408 -37.67359,-35.3773 -81.58133,-64.7145 -199.05238,-132.9977 C 337.64263,1142.059 256.4214,1083.8898 184.47604,1010.4834 65.613141,889.20685 13.579451,741.58525 19.983351,543.81135 30.241291,227.01205 208.61986,35.996539 523.39745,4.7338292 803.51717,-23.086771 1025.3942,71.491229 1137.8837,266.66665 c 57.4701,99.7138 87.2577,234.1335 81.3279,367 l -0.9967,22.3334 H 999.81457 781.41427 l -0.74096,-12.3334 c -0.40752,-6.7833 -1.38354,-26.1333 -2.16892,-43 -2.34619,-50.3862 -6.54406,-83.7775 -14.24793,-113.3333 -21.75868,-83.4768 -73.08437,-123.424 -158.42439,-123.3032 -85.53842,0.1211 -137.88257,50.7273 -147.45041,142.5546 -7.77298,74.6012 17.40437,136.3654 77.80466,190.8679 41.65091,37.5839 77.90375,60.9988 249.56949,161.1917 155.78595,90.9247 216.79149,133.3939 274.82039,191.31715 85.9406,85.7841 132.1344,184.3902 151.1771,322.7052 12.0419,87.4654 12.0368,195.5199 -0.013,277.3333 -39.8662,270.6744 -205.7984,431.0157 -482.90577,466.6347 -44.50067,5.72 -120.53011,8.4271 -168.79838,6.0101 z"
       id="path1" />
    <path
       style="font-weight:bold;font-size:1920px;font-family:Sans;-inkscape-font-specification:'Sans Bold';text-align:center;text-anchor:middle;white-space:pre;fill:#e60005;stroke-width:5.6;stroke-miterlimit:10"
       d="m 2878.179,997.97873 c 120.32,0 211.2,30.71997 272.64,92.15997 61.44,60.16 92.16,157.4401 92.16,291.8401 v 683.52 h -288 v -575.8475 c 0,-80.64 -13.44,-138.24 -40.32,-172.8001 -26.88,-35.84 -67.2,-53.76 -120.96,-53.76 -75.52,0 -128.64,27.52 -159.36,82.56 -29.44,53.7601 -44.16,130.5601 -44.16,230.4001 v 489.4475 h -289.92 V 1501.142 c 0,-78.08 -12.8,-135.04 -38.4,-170.8801 -25.6,-37.12 -65.28,-55.68 -119.04,-55.68 -79.36,0 -134.0274,29.95 -163.2,90.2401 -28.428,58.7511 -42.24,144 -42.24,255.36 v 445.3168 h -289.92 V 1017.1787 h 222.72 l 2.5341,188.5444 c 55.5017,-55.5844 85.3319,-126.7603 156.7496,-165.5044 53.76,-28.16 101.1657,-42.23997 172.8457,-42.23997 78.08,0 141.699,13.43997 192.899,40.31997 52.48,26.88 93.44,65.92 122.88,117.12 h 9.6 c 34.56,-52.48 79.36,-91.52 134.4,-117.12 55.04,-26.88 149.5316,-40.31997 216.0916,-40.31997 z"
       id="path6" />
    <path
       style="font-weight:bold;font-size:1920px;font-family:Sans;-inkscape-font-specification:'Sans Bold';text-align:center;text-anchor:middle;white-space:pre;fill:#e60005;stroke-width:5.6;stroke-miterlimit:10"
       d="M 1259.0399,698.64035 V 1746.9604 H 969.11992 V 698.64035 Z"
       transform="translate(294.03542,318.53838)"
       id="text1" />
  </g>
</svg>
